# xmcd CD Database Entry
#
# Track frame offsets:
# 150
# 18509
# 34679
# 54681
# 70690
# 91948
# 110441
# 135538
# 157124
# 174879
# 196155
# 217467
#
# Disc length: 3103 seconds
#
# Revision: 1
# Processed by: cddbd v1.4PL0 Copyright (c) Steve Scherf et al.
# Submitted via: tcd 2.0b
#
DISCID=a50c1d0c
DTITLE=Vargas Blues Band - Madrid - Memphis
DYEAR=1900
DGENRE=
TTITLE0=Hard times blues
TTITLE1=One day I get lucky
TTITLE2=Madrid - Memphis
TTITLE3=Blues business
TTITLE4=Get ready
TTITLE5=Generation Blues
TTITLE6=2001 Blues
TTITLE7=Del sur
TTITLE8=Right time
TTITLE9=When the night falls
TTITLE10=I'm ready
TTITLE11=Strip-tease
EXTD=
EXTT0=
EXTT1=
EXTT2=
EXTT3=
EXTT4=
EXTT5=
EXTT6=
EXTT7=
EXTT8=
EXTT9=
EXTT10=
EXTT11=
PLAYORDER=
